HIERARCHY
ROOT hip
{
  OFFSET 0.00112043 5.09927 -9.65472
  CHANNELS 6 Xposition Yposition Zposition Zrotation Xrotation Yrotation
  JOINT abdomen
  {
    OFFSET 0 -1.186 -1.5018
    CHANNELS 3 Zrotation Xrotation Yrotation
    JOINT abdomen2
    {
      OFFSET 0 9.964 0.2134
      CHANNELS 3 Zrotation Xrotation Yrotation
      JOINT chest
      {
        OFFSET 0 13.134 -3.2573
        CHANNELS 3 Zrotation Xrotation Yrotation
        JOINT neck
        {
          OFFSET 0 20.686 -1.6905
          CHANNELS 3 Zrotation Xrotation Yrotation
          JOINT head
          {
            OFFSET 0 7.238 -0.1237
            CHANNELS 3 Zrotation Xrotation Yrotation
            End Site
            {
              OFFSET 0 0 0
            }
          }
        }
        JOINT lCollar
        {
          OFFSET 1.7069 20.075 5.0056
          CHANNELS 3 Zrotation Xrotation Yrotation
          JOINT lShldr
          {
            OFFSET 13.6458 -0.047 -4.849
            CHANNELS 3 Zrotation Xrotation Yrotation
            JOINT lForeArm
            {
              OFFSET 28.3255 -0.9759 2.2888
              CHANNELS 3 Zrotation Xrotation Yrotation
              JOINT lHand
              {
                OFFSET 22.1583 -0.53 10.8316
                CHANNELS 3 Zrotation Xrotation Yrotation
                JOINT lThumb1
                {
                  OFFSET 0.786 0.112 2.5817
                  CHANNELS 3 Zrotation Xrotation Yrotation
                  JOINT lThumb2
                  {
                    OFFSET 0.3601 -0.878 4.2331
                    CHANNELS 3 Zrotation Xrotation Yrotation
                    JOINT lThumb2_End
                    {
                      OFFSET 1.8127 -1.216 2.2227
                      CHANNELS 3 Zrotation Xrotation Yrotation
                      End Site
                      {
                        OFFSET 0.0181 -0.0122 0.0222
                      }
                    }
                  }
                }
                JOINT lCarpal1
                {
                  OFFSET 0.9571 1.114 1.7695
                  CHANNELS 3 Zrotation Xrotation Yrotation
                  JOINT lIndex1
                  {
                    OFFSET 4.1246 0.487 4.1451
                    CHANNELS 3 Zrotation Xrotation Yrotation
                    JOINT lIndex2
                    {
                      OFFSET 3.4052 -1.454 2.7682
                      CHANNELS 3 Zrotation Xrotation Yrotation
                      JOINT lIndex2_End
                      {
                        OFFSET 1.4531 -1.795 1.2713
                        CHANNELS 3 Zrotation Xrotation Yrotation
                        End Site
                        {
                          OFFSET 0.0145 -0.0179 0.0127
                        }
                      }
                    }
                  }
                  JOINT lMid1
                  {
                    OFFSET 5.6954 0.21 2.1184
                    CHANNELS 3 Zrotation Xrotation Yrotation
                    JOINT lMid2
                    {
                      OFFSET 3.9766 -1.54 2.3863
                      CHANNELS 3 Zrotation Xrotation Yrotation
                      JOINT lMid2_End
                      {
                        OFFSET 1.4042 -1.926 1.125
                        CHANNELS 3 Zrotation Xrotation Yrotation
                        End Site
                        {
                          OFFSET 0.014 -0.0193 0.0113
                        }
                      }
                    }
                  }
                }
                JOINT lCarpal2
                {
                  OFFSET 2.0956 0.66 -0.3894
                  CHANNELS 3 Zrotation Xrotation Yrotation
                  JOINT lRing1
                  {
                    OFFSET 5.0395 -0.09 2.4971
                    CHANNELS 3 Zrotation Xrotation Yrotation
                    JOINT lRing2
                    {
                      OFFSET 3.7921 -1.552 1.4806
                      CHANNELS 3 Zrotation Xrotation Yrotation
                      JOINT lRing2_End
                      {
                        OFFSET 1.4655 -1.808 0.9609
                        CHANNELS 3 Zrotation Xrotation Yrotation
                        End Site
                        {
                          OFFSET 0.0147 -0.0181 0.0096
                        }
                      }
                    }
                  }
                  JOINT lPinky1
                  {
                    OFFSET 4.9141 -1.269 0.3591
                    CHANNELS 3 Zrotation Xrotation Yrotation
                    JOINT lPinky2
                    {
                      OFFSET 3.1477 -1.685 0.8462
                      CHANNELS 3 Zrotation Xrotation Yrotation
                      JOINT lPinky2_End
                      {
                        OFFSET 0.8055 -1.585 0.7955
                        CHANNELS 3 Zrotation Xrotation Yrotation
                        End Site
                        {
                          OFFSET 0.0081 -0.0158 0.008
                        }
                      }
                    }
                  }
                }
              }
            }
          }
        }
        JOINT rCollar
        {
          OFFSET -1.7069 20.075 5.0056
          CHANNELS 3 Zrotation Xrotation Yrotation
          JOINT rShldr
          {
            OFFSET -13.6458 -0.047 -4.849
            CHANNELS 3 Zrotation Xrotation Yrotation
            JOINT rForeArm
            {
              OFFSET -28.3255 -0.9759 2.2888
              CHANNELS 3 Zrotation Xrotation Yrotation
              JOINT rHand
              {
                OFFSET -22.1583 -0.53 10.8316
                CHANNELS 3 Zrotation Xrotation Yrotation
                JOINT rThumb1
                {
                  OFFSET -0.786 0.112 2.5817
                  CHANNELS 3 Zrotation Xrotation Yrotation
                  JOINT rThumb2
                  {
                    OFFSET -0.3601 -0.878 4.2331
                    CHANNELS 3 Zrotation Xrotation Yrotation
                    JOINT rThumb2_End
                    {
                      OFFSET -1.8127 -1.216 2.2227
                      CHANNELS 3 Zrotation Xrotation Yrotation
                      End Site
                      {
                        OFFSET -0.0181 -0.0122 0.0222
                      }
                    }
                  }
                }
                JOINT rCarpal1
                {
                  OFFSET -0.9571 1.114 1.7695
                  CHANNELS 3 Zrotation Xrotation Yrotation
                  JOINT rIndex1
                  {
                    OFFSET -4.1246 0.487 4.1451
                    CHANNELS 3 Zrotation Xrotation Yrotation
                    JOINT rIndex2
                    {
                      OFFSET -3.4052 -1.454 2.7682
                      CHANNELS 3 Zrotation Xrotation Yrotation
                      JOINT rIndex2_End
                      {
                        OFFSET -1.4531 -1.795 1.2713
                        CHANNELS 3 Zrotation Xrotation Yrotation
                        End Site
                        {
                          OFFSET -0.0145 -0.018 0.0127
                        }
                      }
                    }
                  }
                  JOINT rMid1
                  {
                    OFFSET -5.6954 0.21 2.1184
                    CHANNELS 3 Zrotation Xrotation Yrotation
                    JOINT rMid2
                    {
                      OFFSET -3.9766 -1.54 2.3863
                      CHANNELS 3 Zrotation Xrotation Yrotation
                      JOINT rMid2_End
                      {
                        OFFSET -1.4042 -1.926 1.125
                        CHANNELS 3 Zrotation Xrotation Yrotation
                        End Site
                        {
                          OFFSET -0.014 -0.0193 0.0113
                        }
                      }
                    }
                  }
                }
                JOINT rCarpal2
                {
                  OFFSET -2.0956 0.66 -0.3894
                  CHANNELS 3 Zrotation Xrotation Yrotation
                  JOINT rRing1
                  {
                    OFFSET -5.0395 -0.09 2.4971
                    CHANNELS 3 Zrotation Xrotation Yrotation
                    JOINT rRing2
                    {
                      OFFSET -3.7921 -1.552 1.4806
                      CHANNELS 3 Zrotation Xrotation Yrotation
                      JOINT rRing2_End
                      {
                        OFFSET -1.4655 -1.808 0.9609
                        CHANNELS 3 Zrotation Xrotation Yrotation
                        End Site
                        {
                          OFFSET -0.0147 -0.0181 0.0096
                        }
                      }
                    }
                  }
                  JOINT rPinky1
                  {
                    OFFSET -4.9141 -1.269 0.3592
                    CHANNELS 3 Zrotation Xrotation Yrotation
                    JOINT rPinky2
                    {
                      OFFSET -3.1477 -1.685 0.8462
                      CHANNELS 3 Zrotation Xrotation Yrotation
                      JOINT rPinky2_End
                      {
                        OFFSET -0.8055 -1.585 0.7955
                        CHANNELS 3 Zrotation Xrotation Yrotation
                        End Site
                        {
                          OFFSET -0.0081 -0.0158 0.008
                        }
                      }
                    }
                  }
                }
              }
            }
          }
        }
      }
    }
  }
  JOINT lThigh
  {
    OFFSET 8.367 -8.2066 0.5982
    CHANNELS 3 Zrotation Xrotation Yrotation
    JOINT lShin
    {
      OFFSET 2.1923 -43.463 -0.4932
      CHANNELS 3 Zrotation Xrotation Yrotation
      JOINT lFoot
      {
        OFFSET 0.7333 -45.8593 -2.6451
        CHANNELS 3 Zrotation Xrotation Yrotation
        End Site
        {
          OFFSET 2.6618 -4.2699 12.3931
        }
      }
    }
  }
  JOINT rThigh
  {
    OFFSET -8.367 -8.2066 0.5982
    CHANNELS 3 Zrotation Xrotation Yrotation
    JOINT rShin
    {
      OFFSET -2.1923 -43.463 -0.4931
      CHANNELS 3 Zrotation Xrotation Yrotation
      JOINT rFoot
      {
        OFFSET -0.7333 -45.8593 -2.6451
        CHANNELS 3 Zrotation Xrotation Yrotation
        End Site
        {
          OFFSET -2.6618 -4.2699 12.3931
        }
      }
    }
  }
}
MOTION
Frames:	5
Frame Time:	0.0333333
42.4272 28.4467 29.0465 179.997 58.9947 3.2456e-011 -0.0293842 9.03477 -0.0834891 -0.0461185 18.0696 -0.165366 -0.0461185 18.0696 -0.165366 3.03435 0.350855 -0.599867 -1.45011e-006 0.0601783 -3.41321e-007 -12.3879 -4.01847 -3.9584 -46.6545 55.1263 6.39264 16.6312 32.8835 -4.95879 -0.14684 -8.05738 0.189119 -1.59028e-015 7.95139e-016 -0 -1.59028e-015 0 -0 -1.98785e-015 3.97569e-016 6.36111e-015 -1.59028e-015 1.59028e-015 -0 1.19271e-015 3.97569e-016 1.90833e-014 6.62086e-032 -3.97569e-016 9.54166e-015 3.97569e-016 7.95139e-016 6.36111e-015 1.19271e-015 3.97569e-016 1.90833e-014 6.62086e-032 -3.97569e-016 9.54166e-015 3.97569e-016 7.95139e-016 6.36111e-015 -1.59028e-015 1.59028e-015 -0 1.19271e-015 3.97569e-016 1.90833e-014 6.62086e-032 -3.97569e-016 9.54166e-015 3.97569e-016 7.95139e-016 6.36111e-015 1.19271e-015 3.97569e-016 1.90833e-014 6.62086e-032 -3.97569e-016 9.54166e-015 3.97569e-016 7.95139e-016 6.36111e-015 6.50242 -5.23603 3.15115 55.1794 55.0132 -5.9669 -19.0918 32.1649 9.46754 0.0555291 -5.44817 -6.36196 1.59028e-015 -2.54444e-014 -0 7.95139e-016 -2.54444e-014 3.18055e-015 1.59028e-015 -2.62396e-014 3.18055e-015 1.59028e-015 0 -0 7.95139e-016 -2.46493e-014 -0 1.59028e-015 -2.62396e-014 3.18055e-015 7.95139e-016 -2.46493e-014 3.18055e-015 7.95139e-016 -2.46493e-014 -0 1.59028e-015 -2.62396e-014 3.18055e-015 7.95139e-016 -2.46493e-014 3.18055e-015 1.59028e-015 0 -0 7.95139e-016 -2.46493e-014 -0 1.59028e-015 -2.62396e-014 3.18055e-015 7.95139e-016 -2.46493e-014 3.18055e-015 7.95139e-016 -2.46493e-014 -0 1.59028e-015 -2.62396e-014 3.18055e-015 7.95139e-016 -2.46493e-014 3.18055e-015 55.7446 -75.1489 86.5854 1.58089 32.7533 -41.5484 21.9016 1.77133 4.5201 -51.6695 -76.8865 -82.7911 -1.57247 32.7336 41.5926 -24.3642 1.93011 -5.55367 
42.4172 28.4463 29.049 179.997 58.9947 3.2456e-011 -0.0291143 8.952 -0.0836032 -0.0456663 17.904 -0.16563 -0.0456662 17.904 -0.16563 3.25536 0.877977 -0.657969 1.00401e-007 0.0597174 7.44209e-007 -12.8087 -3.77894 -3.79715 -46.3444 55.131 6.41095 16.6313 32.8835 -4.9588 -0.167904 -7.85235 0.0675592 -4.2201e-007 -7.92056e-008 -3.23871e-006 -9.14274e-008 1.92637e-007 -7.83149e-009 -1.71402e-007 -2.50608e-007 -6.16439e-006 0 0 -3.18055e-015 -4.2201e-007 -7.92056e-008 -3.23871e-006 -9.14274e-008 1.92637e-007 -7.83149e-009 -1.71402e-007 -2.50608e-007 -6.16439e-006 -4.2201e-007 -7.92056e-008 -3.23871e-006 -9.14274e-008 1.92637e-007 -7.83149e-009 -1.71402e-007 -2.50608e-007 -6.16439e-006 0 0 -3.18055e-015 -4.2201e-007 -7.92056e-008 -3.23871e-006 -9.14274e-008 1.92637e-007 -7.83149e-009 -1.71402e-007 -2.50608e-007 -6.16439e-006 -4.2201e-007 -7.92056e-008 -3.23871e-006 -9.14274e-008 1.92637e-007 -7.83149e-009 -1.71402e-007 -2.50608e-007 -6.16439e-006 6.87459 -4.95257 3.00201 54.9035 55.0146 -5.97382 -19.0918 32.1649 9.46756 0.0622875 -5.25516 -6.24316 7.95139e-016 3.18055e-015 -9.54166e-015 7.95139e-016 3.97569e-015 -9.54166e-015 7.95139e-016 3.97569e-015 -1.27222e-014 1.32417e-031 7.95139e-016 -9.54166e-015 2.38542e-015 0 -0 7.95139e-016 2.38542e-015 -9.54166e-015 7.95139e-016 3.18055e-015 -1.27222e-014 2.38542e-015 0 -0 7.95139e-016 2.38542e-015 -9.54166e-015 7.95139e-016 3.18055e-015 -1.27222e-014 1.32417e-031 7.95139e-016 -9.54166e-015 2.38542e-015 0 -0 7.95139e-016 2.38542e-015 -9.54166e-015 7.95139e-016 3.18055e-015 -1.27222e-014 2.38542e-015 0 -0 7.95139e-016 2.38542e-015 -9.54166e-015 7.95139e-016 3.18055e-015 -1.27222e-014 55.766 -75.1334 86.607 1.5812 32.7567 -41.5464 21.9108 1.76969 4.51969 -52.0833 -76.7271 -83.1822 -1.57317 32.74 41.5856 -24.17 1.91212 -5.46834 
42.4073 28.446 29.0515 179.997 58.9947 3.2456e-011 -0.0288353 8.86922 -0.083722 -0.0451953 17.7385 -0.165904 -0.0451953 17.7385 -0.165904 3.47717 1.40422 -0.718146 2.40021e-007 0.0592705 -1.41731e-007 -13.23 -3.54063 -3.63419 -46.0343 55.1357 6.42927 16.6313 32.8835 -4.9588 -0.188519 -7.64728 -0.0538062 -1.95805e-007 8.37515e-008 -2.92997e-007 -2.38542e-015 -3.97569e-016 -1.27222e-014 1.95805e-007 -8.37515e-008 2.92997e-007 1.19271e-015 0 6.36111e-015 -1.95805e-007 8.37515e-008 -2.92997e-007 -7.95139e-016 0 -1.90833e-014 1.95805e-007 -8.37515e-008 2.92997e-007 -1.95805e-007 8.37515e-008 -2.92997e-007 -7.95139e-016 0 -1.90833e-014 1.95805e-007 -8.37515e-008 2.92997e-007 1.19271e-015 0 6.36111e-015 -1.95805e-007 8.37515e-008 -2.92997e-007 -7.95139e-016 0 -1.90833e-014 1.95805e-007 -8.37515e-008 2.92997e-007 -1.95805e-007 8.37515e-008 -2.92997e-007 -7.95139e-016 0 -1.90833e-014 1.95805e-007 -8.37515e-008 2.92997e-007 7.24731 -4.67014 2.85111 54.6276 55.016 -5.98075 -19.0918 32.1649 9.46756 0.0686382 -5.06213 -6.1245 -2.8249e-030 -2.54444e-014 -6.36111e-015 -7.95139e-016 -2.54444e-014 -6.36111e-015 -1.59028e-015 -2.46493e-014 -6.36111e-015 0 0 -6.36111e-015 -3.97252e-030 -2.38542e-014 -9.54166e-015 -7.95139e-016 -2.46493e-014 -6.36111e-015 -2.73662e-030 -2.46493e-014 -6.36111e-015 -3.97252e-030 -2.38542e-014 -9.54166e-015 -7.95139e-016 -2.46493e-014 -6.36111e-015 -2.73662e-030 -2.46493e-014 -6.36111e-015 0 0 -6.36111e-015 -3.97252e-030 -2.38542e-014 -9.54166e-015 -7.95139e-016 -2.46493e-014 -6.36111e-015 -2.73662e-030 -2.46493e-014 -6.36111e-015 -3.97252e-030 -2.38542e-014 -9.54166e-015 -7.95139e-016 -2.46493e-014 -6.36111e-015 -2.73662e-030 -2.46493e-014 -6.36111e-015 55.7879 -75.1179 86.6289 1.58153 32.7604 -41.5443 21.9201 1.76797 4.5193 -52.4873 -76.567 -83.5635 -1.57387 32.7463 41.5787 -23.9757 1.89442 -5.38295 
42.3974 28.4456 29.0541 179.997 58.9947 3.2456e-011 -0.0285633 8.7865 -0.0838334 -0.0447405 17.573 -0.166162 -0.0447405 17.573 -0.166162 3.69959 1.93213 -0.780422 -5.27386e-008 0.0588172 -4.28521e-007 -13.6518 -3.30356 -3.46955 -45.7242 55.1405 6.44751 16.6312 32.8835 -4.95879 -0.208686 -7.44218 -0.175076 2.74758e-007 3.94027e-007 2.79715e-006 -5.45513e-008 8.69681e-008 3.21415e-006 3.8472e-007 1.84018e-007 -1.0736e-008 1.59028e-015 -3.97569e-016 6.36111e-015 2.74758e-007 3.94026e-007 2.79715e-006 -5.45513e-008 8.69681e-008 3.21415e-006 3.8472e-007 1.84018e-007 -1.0736e-008 2.74758e-007 3.94026e-007 2.79715e-006 -5.45513e-008 8.69681e-008 3.21415e-006 3.8472e-007 1.84018e-007 -1.0736e-008 1.59028e-015 -3.97569e-016 6.36111e-015 2.74758e-007 3.94026e-007 2.79715e-006 -5.45513e-008 8.69681e-008 3.21415e-006 3.8472e-007 1.84018e-007 -1.0736e-008 2.74758e-007 3.94026e-007 2.79715e-006 -5.45513e-008 8.69681e-008 3.21415e-006 3.8472e-007 1.84018e-007 -1.0736e-008 7.62058 -4.38868 2.69844 54.3517 55.0174 -5.98766 -19.0918 32.1649 9.46755 0.0745884 -4.8691 -6.00584 -1.59028e-015 -2.62396e-014 -1.27222e-014 7.95139e-016 -2.78299e-014 3.18055e-015 -7.95139e-016 -2.70347e-014 -3.18055e-015 -1.59028e-015 7.95139e-016 -1.27222e-014 7.95139e-016 -2.70347e-014 1.27222e-014 -7.95139e-016 -2.62396e-014 -6.36111e-015 7.95139e-016 -2.70347e-014 -3.18055e-015 7.95139e-016 -2.70347e-014 1.27222e-014 -7.95139e-016 -2.62396e-014 -6.36111e-015 7.95139e-016 -2.70347e-014 -3.18055e-015 -1.59028e-015 7.95139e-016 -1.27222e-014 7.95139e-016 -2.70347e-014 1.27222e-014 -7.95139e-016 -2.62396e-014 -6.36111e-015 7.95139e-016 -2.70347e-014 -3.18055e-015 7.95139e-016 -2.70347e-014 1.27222e-014 -7.95139e-016 -2.62396e-014 -6.36111e-015 7.95139e-016 -2.70347e-014 -3.18055e-015 55.8099 -75.1024 86.651 1.58185 32.7642 -41.5423 21.9294 1.76615 4.51892 -52.8827 -76.4064 -83.9361 -1.57459 32.7528 41.5717 -23.7814 1.87699 -5.29749 
42.3875 28.4453 29.0566 179.997 58.9947 3.2456e-011 -0.0282926 8.70384 -0.0839425 -0.0442892 17.4077 -0.166414 -0.0442894 17.4077 -0.166414 3.92279 2.45996 -0.844802 2.43639e-007 0.0583445 2.34172e-007 -14.0741 -3.06775 -3.30324 -45.4141 55.1453 6.46572 16.6313 32.8835 -4.9588 -0.228403 -7.23704 -0.296182 7.95139e-016 -2.34566e-014 -0 3.97569e-016 -2.3059e-014 -0 3.97569e-016 -2.34566e-014 6.36111e-015 7.95139e-016 3.97569e-016 -0 2.38542e-015 -2.46493e-014 1.27222e-014 7.95139e-016 -2.3059e-014 -0 3.97569e-016 -2.38542e-014 -3.18055e-015 2.38542e-015 -2.46493e-014 1.27222e-014 7.95139e-016 -2.3059e-014 -0 3.97569e-016 -2.38542e-014 -3.18055e-015 7.95139e-016 3.97569e-016 -0 2.38542e-015 -2.46493e-014 1.27222e-014 7.95139e-016 -2.3059e-014 -0 3.97569e-016 -2.38542e-014 -3.18055e-015 2.38542e-015 -2.46493e-014 1.27222e-014 7.95139e-016 -2.3059e-014 -0 3.97569e-016 -2.38542e-014 -3.18055e-015 7.99441 -4.1083 2.54403 54.0758 55.0187 -5.99454 -19.0918 32.1649 9.46756 0.0801355 -4.67606 -5.88723 7.95139e-016 -2.54444e-014 -1.59028e-014 -3.44166e-009 7.1222e-007 -1.21669e-005 -5.48391e-007 1.06925e-007 -3.22106e-006 -7.95139e-016 1.59028e-015 -1.59028e-014 3.18055e-015 -2.70347e-014 -6.36111e-015 -3.44166e-009 7.1222e-007 -1.21669e-005 -5.48391e-007 1.06925e-007 -3.22106e-006 3.18055e-015 -2.70347e-014 -6.36111e-015 -3.44166e-009 7.1222e-007 -1.21669e-005 -5.48391e-007 1.06925e-007 -3.22106e-006 -7.95139e-016 1.59028e-015 -1.59028e-014 3.18055e-015 -2.70347e-014 -6.36111e-015 -3.44166e-009 7.1222e-007 -1.21669e-005 -5.48391e-007 1.06925e-007 -3.22106e-006 3.18055e-015 -2.70347e-014 -6.36111e-015 -3.44166e-009 7.1222e-007 -1.21669e-005 -5.48391e-007 1.06925e-007 -3.22106e-006 55.8316 -75.0869 86.6729 1.58219 32.768 -41.5402 21.9387 1.76438 4.51854 -53.2688 -76.2452 -84.2995 -1.57527 32.7591 41.5647 -23.587 1.85999 -5.21194 
